<svg width="114" height="70" viewBox="0 0 114 70" fill="none" xmlns="http://www.w3.org/2000/svg">
<path d="M80.1684 47.9963C80.8297 48.6437 80.8297 50.517 80.7057 51.4262C80.499 52.9138 79.507 54.1673 78.3634 55.0902C75.2633 57.611 71.0747 56.6743 67.5887 55.7101C66.1833 55.3244 64.5162 54.9387 63.2761 54.1535C62.1876 53.4648 56.4696 51.192 55.9598 50.0212C55.1469 48.1203 55.9185 46.0403 57.8612 45.4342C61.9672 44.1394 69.8622 45.9439 73.8992 46.977C75.8006 47.4453 77.7296 47.6657 80.1684 47.9963Z" fill="#B4877F"/>
<path d="M26.2813 44.7317C26.3364 44.9246 26.4329 45.0899 26.5431 45.2138C26.7911 45.4893 26.6533 46.1505 26.984 46.3296C30.0015 47.9137 32.8949 49.6768 35.7746 51.4813C38.5716 53.2444 42.0575 55.4484 45.1301 56.7432C46.3702 57.2666 47.7204 56.8947 48.6849 57.9002C49.2085 58.4374 49.5116 59.1262 49.801 59.8011C50.2419 60.8893 50.1454 61.9086 51.413 62.0877C52.6806 62.2668 53.714 62.5974 54.775 63.3412C55.4225 63.7957 55.8359 64.512 56.3319 65.1319C56.7315 65.1594 57.2826 65.738 57.6271 65.9859C58.2884 66.4542 59.2805 66.6333 59.9969 67.0466C60.741 67.4736 61.609 67.7491 62.4357 67.9557C64.1029 68.3689 65.839 68.3689 67.5475 68.2312C69.876 68.0521 72.3975 67.3634 73.7064 65.2421C73.8855 64.9666 74.0095 64.5809 74.2713 64.3743C74.5193 64.1677 74.9051 64.0575 75.1945 63.8784C75.8834 63.4514 76.903 63.1759 77.4403 62.5836C77.8675 62.1015 78.4737 61.7847 78.7768 61.2061C79.0249 60.7378 79.1351 60.1868 79.1764 59.6634C79.2315 59.0573 79.2866 58.8094 79.8791 58.5339C80.3614 58.3135 80.816 58.0655 81.2983 57.8451C82.125 57.4594 83.0206 57.0324 83.2686 56.0269C83.5028 55.0213 83.4202 53.2444 82.9379 52.3491C82.6623 51.8394 82.2352 51.8394 81.753 51.8807C80.9538 51.9634 79.9756 51.9909 79.204 52.1562C78.267 52.3629 77.4128 52.5281 76.407 52.5695C75.4425 52.597 74.2989 52.9276 73.3482 52.6934C72.8384 52.5695 72.3424 52.2251 71.805 52.0736C71.1161 51.8807 70.3858 51.8119 69.6831 51.6741C67.0239 51.1782 59.2116 48.4371 56.6075 47.7346C56.9795 47.8035 57.4617 47.6657 57.8475 47.7484C59.0187 48.0101 65.5358 50.2691 66.707 50.5722C67.5199 50.7788 68.3191 50.9854 69.132 51.1507C70.8405 51.5088 72.6317 51.5226 74.3678 51.6053C75.9523 51.6741 77.523 51.8532 79.1075 51.9221C80.072 51.9634 80.8023 51.8945 81.6979 51.6053C82.1388 51.4675 82.5659 51.3298 83.0206 51.2196C84.1917 50.9578 85.3353 50.8201 86.4652 50.4069C87.4296 50.0487 87.6914 49.4013 87.7328 48.4509C87.8706 45.5858 84.6189 45.021 82.3592 44.7042C80.8849 44.5113 79.452 44.6078 77.9915 44.2909C77.4128 44.167 76.8341 43.919 76.2416 43.7537C74.9189 43.3818 73.5686 43.616 72.301 42.9548C70.6752 42.1008 69.6694 42.1283 67.9057 41.66C65.9768 41.1641 63.4553 40.0622 61.9397 38.7536C61.4299 38.3128 60.9752 38.1062 60.3414 37.8582C59.5836 37.569 58.9773 37.2108 58.3022 36.77C57.3653 36.1502 56.1666 35.5028 55.5741 34.4972C55.0367 34.5248 52.5153 32.6514 51.9917 32.6928C51.3717 32.7478 51.9642 34.0013 51.3993 34.2768C50.8895 34.5248 50.2832 34.6625 49.7734 34.9105C49.2498 35.1584 49.4978 35.062 49.0569 35.4477C48.0098 36.3568 47.7618 37.5552 46.9351 38.6296C46.1221 39.6902 45.3368 39.6765 44.2345 40.4616C42.9807 41.357 41.782 43.2579 41.0379 41.3294C40.721 40.5029 40.6108 40.7233 41.093 40.1035C41.782 39.2081 43.022 38.0373 43.5594 37.0455C43.9589 36.3155 42.8567 34.938 42.6638 34.0702C42.3607 32.6101 38.985 32.982 38.0756 33.0647C35.9813 33.2575 33.4323 33.9325 31.9718 35.5165C31.2829 36.2604 30.6353 37.0317 29.9326 37.7618C29.5743 38.1337 29.1885 38.726 28.7752 39.0153C28.665 39.0979 28.6512 39.1393 28.5547 39.1117C27.6316 39.58 26.7636 40.0071 26.3915 41.109C26.2675 41.4672 26.2951 41.8942 26.2813 42.2661C26.2675 42.638 26.2951 43.0512 26.24 43.4231C26.1435 43.8226 26.1435 44.3185 26.2813 44.7317Z" fill="#EEC9C2"/>
<path opacity="0.25" d="M55.8222 34.5799C55.395 35.3375 54.9128 35.2273 54.155 35.4064C53.3558 35.5992 52.5705 36.2466 51.9229 36.7287C51.1788 37.2797 50.2419 37.5552 49.6495 38.1613C48.7952 39.0428 48.1201 40.0759 47.3622 41.0402C46.5355 42.087 45.3644 42.7482 44.4688 43.7124C43.6559 44.5802 42.8292 45.5169 41.5616 45.4618C40.4455 45.4205 39.6739 45.5995 41.1758 44.5251C42.2091 43.7951 43.0634 43.3818 43.8212 42.2799C44.5928 41.1779 45.2404 39.9795 45.8328 38.7949C46.3702 37.7205 47.252 37.018 48.1614 36.2466C49.4428 35.1584 51.0548 34.0151 52.7771 33.8911C53.6038 33.8361 54.9266 33.781 55.8222 34.5799Z" fill="#D8BCB8"/>
<path opacity="0.25" d="M58.6052 66.9088C56.5935 65.5175 56.0837 62.9555 54.1134 61.5091C53.0938 60.7515 51.6333 60.6964 50.7102 59.87C50.035 59.2777 49.8146 58.3548 49.2634 57.6798C48.423 56.6743 47.3207 56.4814 46.1358 56.082C44.9784 55.6825 44.0139 54.856 42.9116 54.3051C42.1676 53.9331 40.3626 52.8587 40.28 54.1673C40.1146 56.7845 43.1321 58.4374 44.9784 59.7047C45.8877 60.3245 46.8385 60.8342 47.5687 61.6607C47.9958 62.1565 48.3403 62.7351 48.8363 63.1759C50.3244 64.4844 52.4049 65.1869 53.9205 66.468C55.1055 67.4873 57.1309 67.873 58.6052 66.9088Z" fill="#D8BCB8"/>
<path opacity="0.25" d="M41.162 34.5798C39.9082 35.3374 38.8472 36.1914 37.7587 37.1694C36.1742 38.602 34.0386 40.1723 33.3083 42.2385C32.8812 43.4369 32.6056 44.6766 32.1785 45.875C31.8203 46.8667 32.2198 48.134 31.7651 48.9605C30.8696 48.1891 29.8362 47.5968 28.9819 46.7841C27.0254 44.9383 28.7064 42.6793 30.1806 41.0539C33.3497 37.5689 36.3671 34.3043 41.162 34.5798Z" fill="#D8BCB8"/>
<path d="M76.1728 60.1041C76.1177 59.0297 76.5724 57.5007 76.2279 56.5503C73.6927 56.6467 73.6238 58.8093 72.4251 60.6276C71.9015 61.4127 71.4055 61.9362 71.1437 62.8728C70.8406 63.9059 70.5237 64.939 70.1104 65.8895C71.626 65.8619 71.4469 66.5644 71.13 67.4047C72.1358 66.9501 73.0314 66.2614 73.6514 65.2558C73.8305 64.9803 73.9545 64.5947 74.2163 64.388C74.4643 64.1814 74.8501 64.0712 75.1394 63.8922C75.8284 63.4651 76.848 63.1896 77.3853 62.5973C77.8125 62.1152 78.4187 61.7984 78.7218 61.2199C78.9698 60.7515 79.0801 60.2006 79.1214 59.6771C79.1352 59.5118 79.149 59.3741 79.1765 59.2639C78.3774 59.0159 76.9031 59.9251 76.1728 60.1041Z" fill="#F0D2CC"/>
<path d="M83.4891 21.0394C81.9873 21.618 80.5681 22.4444 79.0387 23.0367C77.7849 23.5326 76.6137 24.1525 75.3461 24.5933C72.4664 25.585 69.5867 25.5437 66.5831 25.406C64.8608 25.3233 63.1385 25.3922 61.4299 25.2544C59.8868 25.1305 58.2058 24.855 56.6489 24.979C55.5604 25.0616 54.7888 25.7917 53.8656 26.2875C52.5291 27.0176 51.1926 27.7339 49.8286 28.4088C47.996 29.3042 45.9844 29.9791 44.4274 31.329C42.3883 33.106 42.7878 35.5027 41.6856 37.748C40.8726 39.4147 39.0401 40.9575 38.7783 42.8033C39.6601 42.8584 40.4455 43.5609 41.4238 43.6435C42.6914 43.7399 43.8074 43.4782 44.8546 42.7482C46.2737 41.7564 47.2796 40.1585 48.2027 38.7398C48.7676 37.8857 49.057 37.0317 49.9801 36.6736C50.9171 36.3154 52.8322 35.8884 53.1216 34.7589C53.907 34.6763 55.0092 35.365 55.6981 34.7038C56.4146 35.8058 57.0209 36.9077 58.1231 37.7204C59.6801 38.8637 61.802 39.153 63.6345 39.456C63.1247 41.4258 68.7049 42.7206 69.8899 42.9548C71.2953 43.244 75.8008 43.9328 76.8342 44.222C77.7022 44.47 78.584 44.6766 79.4658 44.8557C81.009 45.1725 82.5384 45.1725 84.0954 45.0898C84.9772 45.0485 85.5696 45.0623 86.3688 44.6766C87.7328 44.043 88.78 42.2936 89.3174 40.9575C89.9374 39.4423 90.0614 37.4725 90.2405 35.8609C90.4472 34.0702 90.3921 31.5494 89.7169 29.8276C88.7249 27.3344 87.0577 24.6759 85.2114 22.7199C84.7429 22.224 83.93 21.7006 83.4891 21.0394Z" fill="#E4A99F"/>
<path d="M42.3331 38.6434C42.4571 38.2577 42.4296 37.8031 42.4433 37.4036C42.4985 36.3843 42.526 35.4339 42.65 34.5523C42.3882 35.5992 42.1953 36.6874 41.6855 37.748C41.4237 38.2852 41.0655 38.7949 40.6797 39.3183C40.6659 39.4285 40.6384 39.5249 40.6108 39.6351C40.5006 40.131 40.1699 40.7784 40.3352 41.3018C40.9277 41.1779 41.4237 40.2825 41.6993 39.8004C41.9198 39.4147 42.2091 39.0428 42.3331 38.6434Z" fill="#D8A197"/>
<path d="M84.3985 45.1036C83.9025 45.9714 83.4616 46.9908 82.7727 47.8035C82.2353 48.4371 81.6429 48.933 81.2295 49.6492C80.8437 50.3104 80.637 51.0956 80.4717 51.8945C80.8575 51.8394 81.2295 51.7568 81.6429 51.619C82.0838 51.4813 82.5109 51.3435 82.9656 51.2333C84.1367 50.9716 85.2804 50.8339 86.4102 50.4206C87.3747 50.0625 87.6364 49.4151 87.6778 48.4646C87.788 46.426 86.1622 45.5444 84.3985 45.1036ZM81.7255 51.8945C81.3397 51.9358 80.8988 51.9634 80.4579 51.9909C80.3477 52.5281 80.2375 53.0516 80.0997 53.5612C79.7828 54.6632 79.8241 55.7789 79.6726 56.8947C79.5761 57.5972 79.3281 58.2859 79.3005 59.0022C79.397 58.8231 79.5486 58.6854 79.8655 58.5476C80.3477 58.3272 80.8024 58.0793 81.2846 57.8589C82.1113 57.4732 83.0069 57.0462 83.2549 56.0406C83.4892 55.0351 83.4065 53.2582 82.9242 52.3628C82.6349 51.8532 82.194 51.8532 81.7255 51.8945Z" fill="#F0D2CC"/>
<path d="M14.1839 2.99475C14.1839 2.99475 33.6803 27.7339 44.0829 31.6596C44.0829 31.6596 43.4216 32.431 43.1873 32.982C42.9531 33.533 42.7051 34.387 42.7051 34.387C42.7051 34.387 37.4004 35.365 31.8202 42.2523C31.8202 42.2523 32.3024 42.1834 31.6824 43.4231C31.6824 43.4231 29.9601 46.1918 29.9601 47.5279C29.9601 47.5279 36.615 50.5032 40.9828 54.3739C41.2997 54.6632 39.4534 55.3932 39.3018 55.4621C38.2409 55.8891 39.288 56.2335 38.1031 56.3023C36.8768 56.3712 33.5425 55.9717 32.454 55.4483C31.517 55.0075 30.6215 54.4703 29.8361 53.8091C29.0783 53.1755 28.4031 52.4041 27.9209 51.5226C27.6867 51.0818 27.5075 50.6134 27.3835 50.1313C27.3146 49.8283 27.0391 48.9329 27.2044 48.6574L26.2399 50.2415L0.405518 29.9516L14.1839 2.99475Z" fill="#3399FF"/>
<path d="M49.98 36.6598C50.1178 36.6047 50.2831 36.5496 50.4484 36.4945C49.6768 36.5083 48.919 36.4257 48.2715 35.9711C47.4034 35.365 46.494 34.3595 45.874 33.5192C45.9429 34.814 47.3483 36.0537 48.2852 36.77C48.5057 36.9353 48.7537 37.197 49.0155 37.4312C49.2635 37.1006 49.5528 36.8251 49.98 36.6598Z" fill="#D8A197"/>
<path d="M50.4483 36.4946C50.283 36.5497 50.1177 36.6048 49.9799 36.6599C49.5527 36.8252 49.2634 37.1006 49.0154 37.4312" fill="#D8A197"/>
<path d="M50.4484 36.4945C49.6768 36.5083 48.919 36.4257 48.2715 35.9711C47.4034 35.365 46.494 34.3595 45.874 33.5192C45.9429 34.814 47.3483 36.0537 48.2852 36.77C48.5057 36.9353 48.7537 37.197 49.0155 37.4312" fill="#D8A197"/>
<path opacity="0.34" d="M31.6823 43.4231C32.1646 42.4589 31.9855 42.2798 31.8752 42.2523C30.332 43.3542 28.7751 44.5939 27.8933 46.2469C27.4799 47.0183 27.3146 47.8585 27.163 48.7125C27.1906 48.6712 27.2044 48.6574 27.2044 48.6574C27.039 48.9329 27.3146 49.8283 27.3835 50.1313C27.5075 50.6134 27.6866 51.0818 27.9208 51.5226C28.3893 52.4041 29.0644 53.1617 29.836 53.8091C30.6352 54.4703 31.517 55.0075 32.4539 55.4483C33.5424 55.958 36.8768 56.3712 38.103 56.3023C39.288 56.2335 38.2408 55.8891 39.3018 55.4621C39.3431 55.4483 39.5498 55.3657 39.8116 55.2555C39.8942 54.7045 39.9218 54.1259 39.8667 53.4923C39.8667 53.4785 39.8667 53.451 39.8667 53.4372C35.5678 50.0487 29.9738 47.5417 29.9738 47.5417C29.96 46.1918 31.6823 43.4231 31.6823 43.4231Z" fill="#9A9DCE"/>
<path d="M29.9737 47.3627C29.9737 47.3489 29.9737 47.3351 29.9737 47.3213C29.9737 47.2662 29.9875 47.1974 30.0013 47.1423C30.0151 47.0734 30.0289 47.0045 30.0426 46.9357C30.0426 46.9219 30.0426 46.9081 30.0564 46.8943C30.0702 46.8255 30.0977 46.7566 30.1115 46.6877C30.0564 46.6326 28.4857 48.9881 28.9266 50.3931C29.6844 52.7898 32.3298 52.597 34.3139 53.2582C35.1406 53.5337 37.8549 55.0764 39.7563 55.2693C39.7977 55.2555 39.8252 55.2417 39.8666 55.2279C39.9355 55.2004 40.0181 55.1591 40.087 55.1177C40.087 55.1177 40.1008 55.1177 40.1008 55.104C40.1697 55.0626 40.2524 55.0351 40.3213 54.9938C40.335 54.9938 40.335 54.98 40.3488 54.98C40.3764 54.9662 40.4039 54.9525 40.4315 54.9387L40.4453 54.9249C40.4728 54.9111 40.5142 54.8836 40.5417 54.8698L40.5555 54.856C40.5831 54.8423 40.6106 54.8285 40.6244 54.8147C40.6382 54.8147 40.6382 54.8009 40.6519 54.8009C40.6795 54.7872 40.7071 54.7596 40.7346 54.7458C40.7346 54.7458 40.7346 54.7458 40.7484 54.7458C40.7759 54.7321 40.7897 54.7183 40.8173 54.7045L40.8311 54.6907C40.8448 54.677 40.8724 54.6632 40.8862 54.6494C40.8862 54.6494 40.8862 54.6494 40.9 54.6356C40.9137 54.6219 40.9275 54.6081 40.9413 54.5805C40.9413 54.5805 40.9413 54.5668 40.9551 54.5668C40.9688 54.553 40.9688 54.5392 40.9826 54.5254V54.5117C40.9964 54.4979 40.9964 54.4841 40.9964 54.4703C40.9964 54.4703 40.9964 54.4703 40.9964 54.4566C40.9964 54.4428 40.9964 54.429 40.9964 54.429V54.4152C40.9964 54.4015 40.9826 54.3877 40.9688 54.3739C36.6011 50.5033 29.9462 47.528 29.9462 47.528C29.96 47.4729 29.96 47.4178 29.9737 47.3627Z" fill="#9A9DCE"/>
<path d="M49.98 36.6598C50.1178 36.6047 50.2831 36.5496 50.4484 36.4945C49.6768 36.5083 48.919 36.4257 48.2715 35.9711C47.4034 35.365 46.494 34.3595 45.874 33.5192C45.9429 34.814 47.3483 36.0537 48.2852 36.77C48.5057 36.9353 48.7537 37.197 49.0155 37.4312C49.2635 37.1006 49.5528 36.8251 49.98 36.6598Z" fill="#D8A197"/>
<path d="M50.4483 36.4946C50.283 36.5497 50.1177 36.6048 49.9799 36.6599C49.5527 36.8252 49.2634 37.1006 49.0154 37.4312" fill="#D8A197"/>
<path d="M50.4484 36.4945C49.6768 36.5083 48.919 36.4257 48.2715 35.9711C47.4034 35.365 46.494 34.3595 45.874 33.5192C45.9429 34.814 47.3483 36.0537 48.2852 36.77C48.5057 36.9353 48.7537 37.197 49.0155 37.4312" fill="#D8A197"/>
<path d="M81.3947 22.2792C81.2431 23.4776 81.2294 24.6209 80.7058 25.7642C80.3062 26.6319 79.7275 27.1967 79.5484 28.1747C78.9697 31.2464 80.3475 34.3733 81.7805 37.018C82.7036 38.726 83.1997 40.6407 84.2882 42.2661C86.5478 45.6684 92.569 40.8335 93.5472 38.5056C94.2913 36.7287 94.4566 34.0289 94.3602 32.1005C94.2637 30.1445 93.0099 28.3262 91.7009 26.935C90.4609 25.5989 88.835 24.6897 87.2781 23.7531C85.8038 22.8439 83.8197 21.4803 81.3947 22.2792Z" fill="#D8A197"/>
<path d="M108.152 4.02786L84.8668 18.56C84.8668 18.56 82.8689 19.3865 81.9733 21.3838C81.9733 21.3838 80.1821 23.8632 80.1821 27.0314C80.1821 27.0314 80.251 34.8829 88.518 43.8364C88.518 43.8364 90.7915 46.2469 92.376 46.2469C92.376 46.2469 92.7204 46.2469 94.8561 46.2469C94.8561 46.2469 92.996 48.1065 95.9583 47.3489L113.595 41.6324V0.446472L108.152 4.02786Z" fill="#DDF4FF"/>
<path d="M56.0976 27.789C55.0228 28.8634 55.0091 32.5963 55.0366 33.4779C54.7335 32.9682 54.2375 32.6101 53.9619 32.0867C54.1135 32.982 54.7473 33.5881 54.9815 34.4421C55.0366 34.635 55.078 34.8003 55.1331 34.9656C55.2295 34.9518 55.326 34.9242 55.4086 34.8829C55.3122 34.4972 55.2571 34.084 55.2433 33.6708C55.202 32.7616 56.0149 28.5742 56.0976 27.789Z" fill="#D8A197"/>
<path d="M51.5923 30.7643C51.2616 31.7974 51.8816 33.4503 52.4052 34.3319C52.5843 34.6349 52.8185 34.8002 52.9012 35.1584C52.9012 35.1721 52.9012 35.1722 52.9012 35.1859C52.9977 35.062 53.0666 34.9104 53.1079 34.7589C53.3697 34.7314 53.6728 34.7865 53.9759 34.8553C52.543 34.1804 52.047 32.0591 51.5923 30.7643Z" fill="#D8A197"/>
<path d="M72.852 43.4645C72.8107 43.0375 72.3973 42.638 72.0391 42.3074C71.2813 41.5911 70.6199 41.1917 70.3306 40.1448C70.1928 39.6351 70.2479 38.7673 69.8483 38.3541C69.0905 37.5552 67.0789 37.996 66.1006 37.996C64.5161 37.996 62.9591 37.9409 61.416 37.6103C60.2586 37.3623 58.3572 37.1833 56.938 36.5634C57.2687 36.9904 57.6545 37.3899 58.1229 37.7343C59.6799 38.8775 66.2522 42.4176 69.8897 42.9686C70.4959 43.0375 71.6395 43.2579 72.852 43.4645Z" fill="#D8A197"/>
<path d="M87.3057 46.7703C86.4928 46.2744 85.294 46.8805 84.7567 47.5417C84.4122 47.9549 84.2331 48.437 84.1642 48.9605C84.1091 49.3875 83.9162 50.0349 84.1367 50.4344C84.4811 51.0405 86.2861 50.7099 86.8372 50.5859C87.7328 50.393 88.1599 49.7181 88.0911 48.8365C88.0497 48.258 87.967 47.5692 87.6226 47.0871C87.5261 46.9356 87.4159 46.8392 87.3057 46.7703Z" fill="#FAEFEC"/>
<path opacity="0.25" d="M69.6831 44.4976C68.6635 45.3103 67.947 46.2194 68.0297 47.5968C68.071 48.4371 68.195 50.4206 69.2697 50.641C69.4213 49.7181 68.691 48.6024 68.5946 47.6657C68.5257 47.0321 68.4844 46.3847 68.7462 45.7924C68.9253 45.3654 69.2697 45.0899 69.6831 44.4976Z" fill="#D8BCB8"/>
<path opacity="0.25" d="M56.0425 39.4009C55.0918 40.131 54.2927 41.5498 53.9344 42.6793C53.5762 43.795 53.2731 45.4893 53.8655 46.5499C54.4029 45.9714 54.2789 45.2689 54.3064 44.5389C54.334 43.8226 54.5269 43.1063 54.8162 42.4589C55.0505 41.9079 56.7728 39.8968 56.0425 39.4009Z" fill="#D8BCB8"/>
<path opacity="0.25" d="M51.0824 55.2968C50.9446 56.7431 52.35 57.3905 53.3834 58.0241C54.4857 58.7129 55.9737 59.0848 57.2414 59.3465C56.7178 59.7735 55.6844 59.5531 55.0644 59.4843C53.7968 59.3327 52.7634 58.6165 51.7576 57.8451C51.1513 57.3767 50.3522 56.7569 50.1731 55.9855C50.0628 55.5723 50.1455 55.0764 51.0824 55.2968Z" fill="#D8BCB8"/>
<path opacity="0.25" d="M58.2471 56.8533C58.812 56.4401 60.3 56.812 60.9752 56.9084C61.857 57.0462 62.601 57.5145 63.414 57.8589C64.9985 58.5476 66.5279 59.3327 68.1261 60.0215C69.4489 60.5862 70.9232 60.6413 72.3285 60.7102C73.5548 60.7653 74.6433 60.5725 75.8007 60.2419C76.8892 59.925 78.3221 59.1261 79.3968 58.8644C78.4186 59.8424 77.5505 60.476 76.338 60.6964C75.1531 60.903 73.4446 60.9719 72.3148 61.275C70.8267 61.6744 69.4902 61.151 68.0986 60.6138C66.5692 60.0215 65.026 59.4567 63.5242 58.8506C62.6837 58.52 61.8846 58.1344 61.0716 57.7624C60.3414 57.4043 59.556 57.2252 58.2471 56.8533Z" fill="#D8BCB8"/>
<path opacity="0.25" d="M59.17 62.2668C58.9771 62.2668 58.2193 62.0601 58.3019 62.5009C58.3708 62.8315 59.6384 62.9142 59.9691 63.0244C61.2781 63.4514 62.6697 64.0161 63.896 64.6635C65.3289 65.4074 66.6516 66.0961 68.2913 66.3991C68.994 66.5369 69.6829 66.6471 70.3305 66.3716C70.7989 66.1787 71.1847 66.0685 71.6945 65.9859C72.0252 65.9308 73.7475 65.2421 74.2435 64.388C74.5053 63.9473 71.543 65.3936 71.102 65.5313C69.0491 66.1512 67.0374 65.5176 65.0533 64.8426C64.1164 64.512 63.207 64.1401 62.3114 63.6993C61.3883 63.231 60.4927 62.5285 59.17 62.2668Z" fill="#D8BCB8"/>
<path d="M63.8687 68.2311C63.5105 68.5342 63.0144 68.851 62.5735 69.0163C62.0637 69.1953 61.2922 69.0163 60.741 69.0301C59.2667 69.0438 57.6271 69.6361 56.1528 69.5535C55.395 69.5122 55.147 69.3469 54.5821 68.8234C54.0861 68.3689 53.6727 67.8317 53.2042 67.322C52.7358 66.7986 52.2398 66.2476 51.5233 66.1374C50.5175 65.9996 49.0294 66.0134 48.0098 65.7655C46.9351 65.49 46.1497 64.0436 46.1911 62.8315C45.1852 62.4045 44.207 63.3136 42.9669 62.0739C42.0989 61.2061 41.782 60.0352 41.2584 58.9746C41.0104 58.4787 41.2171 58.0517 40.6384 57.9415C39.8943 57.79 39.1228 58.1481 38.4063 57.7762C36.8907 57.0048 38.2272 54.5667 39.1228 53.878C39.8392 53.327 40.8588 53.8229 41.3273 54.6907C42.154 54.6907 42.6776 54.6769 43.4354 55.0764C44.1932 55.4758 44.7857 55.9717 45.1301 56.7569C46.9075 56.5365 48.4369 57.1012 49.4979 58.5614C50.1317 59.4154 49.8148 60.8893 50.6277 61.5367C51.1651 61.9775 51.4131 61.7433 52.0331 61.6744C52.9425 61.5642 53.7416 61.8397 54.3892 62.4458C54.8439 62.8866 55.4501 63.2309 55.8497 63.7406C56.1804 64.1676 56.4697 64.6084 56.8417 64.9941C57.6271 65.8068 58.8672 66.3027 59.9005 66.8123C61.2646 67.5011 62.7113 67.6113 63.8687 68.2311Z" fill="#DEA097"/>
<path opacity="0.25" d="M73.2241 60.7515C73.7339 60.2556 73.8441 58.4649 73.5685 57.79C73.4032 57.3905 72.9623 57.1563 72.5076 57.2114C72.2044 57.2528 72.0391 57.5834 71.8049 57.6247C71.5569 57.666 71.1711 57.1288 70.8955 57.1701C70.7164 57.1977 70.4821 57.5145 70.3857 57.6522C70.1515 58.0104 70.1377 58.4236 70.1377 58.8368C70.1239 59.6909 70.2479 60.3658 71.0746 60.7653C71.5569 60.9995 72.4111 61.027 73.2241 60.7515Z" fill="#D8BCB8"/>
<path opacity="0.25" d="M70.7854 65.8068C69.8072 65.2145 70.565 64.2228 70.6339 63.3825C70.1378 63.6718 69.9174 64.0712 69.6694 64.5671C69.5729 64.7737 69.4489 65.187 69.2009 65.2421C68.3053 65.4625 68.7187 63.6993 68.8427 63.3963C68.512 63.7269 68.1262 64.2228 68.1262 64.7186C67.9884 64.4569 67.9058 64.1539 67.7542 63.9197C67.4786 64.2641 67.1755 64.1126 67.1066 64.6773C67.0515 65.2145 67.3271 65.3661 67.7542 65.614C68.2089 65.8757 68.6498 65.917 69.1734 65.917C69.3938 65.917 69.628 65.9446 69.8485 65.917C70.0276 65.9308 70.3032 65.9033 70.7854 65.8068Z" fill="#D8BCB8"/>
<path opacity="0.25" d="M63.8962 68.2312C64.4198 67.9419 65.5772 67.6113 65.963 67.1567C66.6795 67.8592 68.7462 67.8317 69.6694 67.9006C68.9116 68.1485 67.768 68.2174 67.1066 68.2863C66.6106 68.3413 66.1008 68.3827 65.591 68.3827C65.3567 68.3827 65.1087 68.3551 64.8745 68.3414C64.8056 68.3276 63.9927 68.4102 63.8962 68.2312Z" fill="#D8BCB8"/>
<path d="M63.1798 68.0383C62.6838 69.1953 62.1464 68.975 60.9477 68.9199C59.8179 68.8648 58.6467 69.0576 57.5169 69.1127C56.5524 69.154 55.7395 69.278 54.9128 68.603C53.8243 67.7215 53.1353 66.4404 52.2397 65.3936C51.5784 64.6222 50.6415 64.691 50.0628 63.9197C49.6219 63.3274 49.801 62.9692 50.3246 62.3907C52.0193 60.5587 54.5407 62.4733 55.8083 63.8646C57.1035 65.2834 57.324 66.771 57.5031 68.6306C57.8062 68.2173 57.7649 67.6526 57.6684 67.1567C57.5858 66.6746 57.1035 65.9308 57.3102 65.4487C58.192 66.041 58.812 67.019 59.8179 67.446C60.8099 67.873 62.1464 67.4735 63.1798 68.0383Z" fill="#E7B3AA"/>
<path d="M49.2637 63.8233C49.1121 63.2861 49.181 62.8177 49.6219 62.5009C50.0904 62.1703 50.3797 62.1566 50.1731 61.5505C50.0077 61.0821 49.9664 60.5725 49.7597 60.1179C49.4015 59.319 49.0984 58.5201 48.4783 57.8864C48.1614 57.5558 47.6378 57.2941 47.2658 57.115C46.3151 56.6605 45.0337 56.4676 44.6893 57.7625C44.4964 58.5063 45.1164 58.7818 45.6675 59.1399C46.3289 59.5669 46.3151 60.2006 46.4254 60.9444C46.5769 62.0739 46.3151 63.5065 47.2658 64.3467C47.4725 64.5396 47.7619 64.6498 48.0236 64.7737C48.4232 64.9666 48.8366 65.2145 49.2775 65.2696C49.5117 65.2972 49.7322 65.3109 49.9664 65.2972C50.0491 65.2972 50.614 65.2145 50.6415 65.2696C50.242 64.6911 49.4566 64.512 49.2637 63.8233Z" fill="#E7B3AA"/>
<path d="M45.0474 56.6467C44.8269 55.2142 42.9393 54.4428 41.6579 54.6632C41.1067 54.7596 40.8036 55.0902 40.528 55.5585C40.156 56.1646 40.6796 56.5227 41.1343 56.9222C41.6028 57.3354 41.8094 57.666 41.8921 58.2859C41.9748 58.892 42.0712 59.4843 42.0437 60.0904C42.0161 60.7515 42.581 60.7653 43.1046 60.7515C43.9726 60.724 43.8762 60.2694 43.8762 59.5807C43.8762 59.0022 43.6833 56.2473 44.9233 56.936C44.9233 56.8809 44.9509 56.8396 45.0474 56.6467Z" fill="#E7B3AA"/>
<path d="M40.6797 54.6218C39.9908 54.2637 39.0126 54.7871 38.5579 55.283C37.9516 55.9442 37.8689 56.6604 38.4201 57.418C38.7232 57.8175 39.9081 58.2307 39.7566 57.3905C39.6877 57.0324 39.481 56.7431 39.4535 56.3574C39.4397 56.137 39.4259 55.8615 39.4948 55.6411C39.6877 55.1177 40.2251 55.0901 40.6797 54.6218Z" fill="#E7B3AA"/>
<path d="M45.4193 57.3906C45.4331 57.239 45.4744 57.0462 45.3367 56.9222C45.13 56.7294 44.7717 56.7018 44.6202 56.9084C44.3584 57.2528 44.3997 57.7762 44.4135 58.1757C44.4548 58.892 44.5513 59.6496 44.758 60.3659C44.9371 60.9857 45.2264 61.9224 45.75 62.3356C46.0807 62.5973 46.4665 62.3494 46.6594 62.0464C46.9212 61.6193 46.8798 61.0408 46.8523 60.5587C46.8247 60.0904 46.5905 59.6634 46.2598 59.3328C45.9153 58.9746 45.1575 58.7405 44.9922 58.2584C44.8682 57.9002 45.1575 57.6798 45.4193 57.3906Z" fill="#F2D6D1"/>
<path opacity="0.23" d="M113.595 0.446472L108.152 4.02786L84.8669 18.56C84.8669 18.56 82.869 19.3865 81.9734 21.3838C81.9734 21.3838 81.3258 22.2929 80.8022 23.6979C81.2294 23.7668 81.5049 23.8357 82.001 23.7255C82.4281 23.6291 82.8828 23.3123 83.2686 23.1194C84.3708 22.596 85.4456 22.0312 86.5203 21.4527C88.9039 20.1854 91.1085 18.7253 93.561 17.5958C95.5175 16.7005 97.8185 16.8382 99.3617 15.2955C101.029 13.615 102.999 11.9896 105.093 10.8187C106.733 9.9096 109.103 8.58724 110.55 7.49905C111.9 6.47973 111.941 5.74968 113.567 5.0885V0.446472H113.595Z" fill="#D7EBFF"/>
<path d="M40.7073 55.4346C40.9691 54.9938 40.542 54.7045 40.1149 54.9112C39.8255 55.0489 39.5913 55.5723 39.5637 55.8754C39.4948 56.4952 39.8944 56.9222 40.2664 57.3493C40.5695 57.7074 40.7349 58.162 40.8589 58.6303C40.9553 59.016 41.0931 59.567 41.3549 59.8838C41.5616 60.1179 41.9749 60.0491 42.1265 59.7598C42.2781 59.4981 42.1541 58.892 42.0989 58.589C42.0301 58.2584 41.906 57.8038 41.658 57.5697C41.2309 57.1564 40.666 56.8121 40.3629 56.2886C40.1149 55.8892 40.2802 55.6688 40.7073 55.4346Z" fill="#F2D6D1"/>
<path d="M50.2143 62.5284C50.4347 62.0876 49.5943 62.129 49.4565 62.5284C49.3462 62.8315 49.3462 63.3549 49.5254 63.6166C49.7872 64.0023 50.1867 64.2227 50.5312 64.4982C50.8205 64.7323 51.0823 64.9803 51.3717 65.2282C51.6335 65.4624 51.9228 65.6415 52.1019 65.9445C52.3086 66.2613 52.5704 66.5506 52.7771 66.8674C52.97 66.0409 52.5153 65.3384 51.9504 64.7599C51.6886 64.4844 51.4681 64.0712 51.1099 63.9059C50.8343 63.7819 50.2832 63.8094 50.0903 63.534C49.9663 63.3273 50.0352 62.859 50.2143 62.5284Z" fill="#F2D6D1"/>
<path d="M113.595 41.6324V38.6296C110.577 40.1172 105.452 42.0594 104.019 42.39C103.261 42.5691 102.6 42.9135 101.883 43.1889C100.946 43.5471 100.078 43.9465 99.155 44.3736C98.5212 44.6766 97.8185 44.8557 97.2122 45.1862C96.4682 45.5995 95.8895 45.8612 95.0628 46.1229C94.9526 46.1642 94.8286 46.2056 94.7046 46.2469H94.8423C94.8423 46.2469 92.9823 48.1064 95.9446 47.3488L113.595 41.6324Z" fill="#CEE8FF"/>
<path d="M100.34 14.4552C101.043 13.5461 102.048 13.4221 102.944 12.816C102.09 13.1053 101.236 13.1191 100.423 13.5599C99.6786 13.9593 99.527 14.5654 98.9621 15.0888C98.1216 15.874 97.102 15.8602 96.0411 16.0531C94.6081 16.3148 93.437 17.3479 92.1418 17.9815C90.8191 18.6289 89.3035 19.8273 87.7603 19.8273C87.6914 19.0697 87.9256 18.3259 87.8154 17.5958C87.7878 17.403 87.7052 17.1137 87.5949 16.852L86.6993 17.403C86.5891 18.3947 86.7269 19.538 86.286 20.4747C85.6522 21.8108 84.4672 22.1276 83.2134 22.7062C82.3867 23.0781 81.6013 23.6291 81.4084 24.5657C82.8276 24.2352 83.4339 23.0092 84.7979 22.4169C86.4513 21.7006 87.9256 20.8191 89.4963 19.9788C91.1497 19.0972 92.5276 17.954 94.3601 17.3341C95.6139 16.9071 97.0882 16.9209 98.2869 16.3974C99.1963 16.0255 99.7612 15.2128 100.34 14.4552Z" fill="#CEE8FF"/>
<path d="M107.036 8.20156C106.981 7.22357 107.133 6.24557 107.174 5.26758C106.099 6.03895 105.176 6.9343 105.121 5.91498L102.365 7.6368C103.192 8.57347 104.212 9.27598 105.025 10.2264C106.94 12.4717 108.001 15.199 109.241 17.8162C108.924 16.7142 108.648 15.6123 108.442 14.4828C108.249 13.4634 107.849 12.4441 107.711 11.4248C107.601 10.6121 107.849 9.88206 108.332 9.2622C108.8 8.6699 110.398 7.88475 110.536 7.23734C109.806 7.12714 107.615 7.747 107.036 8.20156Z" fill="#CEE8FF"/>
<path d="M98.3697 44.6904C97.9701 44.8419 97.5843 44.9796 97.2123 45.1863C96.4958 45.5857 95.9309 45.8337 95.1731 46.0816C95.3384 46.1918 95.5589 46.2882 95.8207 46.3296C97.0332 46.55 98.1768 45.8337 98.3697 44.6904Z" fill="#C5D7FF"/>
<path d="M41.6992 37.7342C40.9001 39.3872 39.0951 40.9161 38.792 42.7344C39.536 42.7757 40.5281 41.6324 40.7899 40.9437C41.0379 40.2825 41.1756 39.6213 41.4099 38.9326C41.5339 38.5469 41.7406 38.0097 41.7819 37.5414C41.7543 37.6103 41.7268 37.6791 41.6992 37.7342Z" fill="#F2D6D1"/>
<path d="M74.2851 43.7124C73.9131 43.6297 73.4997 43.5471 73.1277 43.5195C73.5135 43.5746 73.9131 43.6435 74.2851 43.7124ZM79.3279 44.6904C78.9422 44.6628 78.5701 44.6077 78.2119 44.5664C78.6253 44.6628 79.0386 44.7593 79.452 44.8419C80.9813 45.1449 82.4832 45.1587 84.0264 45.0761C82.993 44.2909 80.4991 44.8006 79.3279 44.6904Z" fill="#D8A197"/>
<path d="M74.8776 32.1968C74.6158 34.6349 77.4817 36.2052 77.9088 38.4643C78.4186 41.2192 79.6586 42.514 81.2018 44.7041C78.8044 45.2827 76.9168 41.1916 76.6688 39.4974C76.2554 36.8251 74.2024 35.1308 74.8776 32.1968Z" fill="#E9B8AF"/>
<path d="M67.6302 26.687C63.6483 27.7201 64.8884 32.1968 63.7861 35.1033C62.422 34.511 62.7665 31.7423 63.1798 30.5577C63.7448 28.9736 65.1088 27.3344 67.6302 26.687Z" fill="#D8A197"/>
<path d="M26.24 50.2415C26.24 50.2415 26.24 50.2278 26.2538 50.214C26.2538 50.214 26.24 50.2278 26.24 50.2415ZM27.5076 48.4095C27.7281 47.0734 28.4859 45.875 29.1748 44.7455C28.2241 45.6822 27.5076 46.8805 27.0116 48.134C26.8325 48.6024 26.7773 49.112 26.6396 49.5666C26.9014 49.1396 27.1907 48.6575 27.1907 48.6575C27.0254 48.9329 27.3009 49.8283 27.3698 50.1313C27.4938 50.6134 27.6729 51.068 27.9072 51.5088C27.9898 51.4261 28.0725 51.3435 28.169 51.2471C28.0174 50.2553 27.3423 49.4288 27.5076 48.4095Z" fill="#9A9DCE"/>
<path opacity="0.2" d="M42.65 31.0122C34.5759 26.9074 22.4096 12.9538 16.9671 6.41088C14.7626 5.94254 13.123 6.89299 11.6624 8.91785C8.3143 13.5323 10.4775 18.3947 14.8177 21.3838C16.3471 22.4445 17.4494 24.0148 18.7032 25.3647C19.0063 25.6953 19.337 26.0396 19.7779 26.1498C20.6873 26.3978 21.5278 25.5851 22.0238 24.7861C22.5198 23.9872 23.0158 23.0506 23.9252 22.8026C24.435 22.6649 24.9723 22.7751 25.4821 22.9266C28.8303 23.877 31.9029 25.5988 34.7688 27.5411C36.2155 28.5191 37.6071 29.5797 38.9712 30.6679C39.3432 30.9572 43.8763 34.6074 43.4629 32.4586C43.3665 32.0453 43.0633 31.5357 42.65 31.0122Z" fill="#3399FF"/>
<path d="M20.1774 29.7174C18.8272 31.6872 15.9199 33.836 16.0577 36.4532C19.8881 36.0537 18.0831 32.0178 20.1774 29.7174Z" fill="#3399FF"/>
<path d="M16.4709 42.5691L18.3999 44.0843C19.268 42.2936 20.3978 40.558 21.2245 38.8087C22.2854 36.5221 22.561 34.1253 23.6219 31.825C21.9272 34.0151 20.0258 36.2604 18.4688 38.5607C17.7523 39.5663 16.8705 41.0815 16.4709 42.5691Z" fill="#3399FF"/>
<path d="M26.2399 50.2416C26.0056 49.484 25.0825 49.057 24.5038 48.506C23.2638 47.3351 22.1477 45.999 20.9765 44.8006C17.8075 41.5774 19.2956 37.6241 18.028 33.7534C16.9946 36.0262 14.6385 34.8692 13.7567 33.0785C13.3571 32.2795 13.3709 31.4255 13.054 30.599C12.6958 29.6761 11.9379 28.8497 11.4695 27.9819C10.7117 26.5769 10.8495 24.8137 10.1054 23.5051C8.4658 20.6262 6.53683 23.2572 5.62746 24.9928C4.29095 27.5273 0.405458 28.2023 3.14735 31.0811C3.0509 31.5495 2.98201 31.7836 2.9269 31.9214L26.2399 50.2416Z" fill="#3399FF"/>
<path opacity="0.13" d="M44.827 47.5418C45.4746 48.3545 46.2599 49.0432 47.1555 49.5804C47.7893 49.9523 48.492 50.2829 48.8916 50.889C49.1672 51.316 49.2636 51.8394 49.3876 52.3353C50.0352 54.8285 51.8677 56.9773 54.21 58.038C55.0781 58.4237 55.9875 58.6991 56.8279 59.1675C57.5857 59.5807 57.2551 60.1868 56.4559 60.1041C55.023 59.9526 53.466 59.5532 52.226 58.7129C50.8895 57.79 50.6001 56.1922 48.7814 56.3712C47.8858 56.4539 47.3622 56.1646 46.6595 55.655C45.0612 54.4979 44.2345 53.0653 42.9807 51.6328C42.526 51.1231 42.0851 50.5033 41.7544 49.8972C41.8922 50.1451 43.1598 50.6135 43.4767 50.9027C43.9727 51.3573 44.3447 51.8945 44.827 52.3628C46.0395 53.5199 47.3898 54.553 48.8365 55.4208C50.2832 56.3024 49.0432 53.6301 48.8227 53.2169C48.244 52.1562 47.4724 51.192 46.5355 50.4206C46.067 50.0349 45.5572 49.6768 45.1852 49.2085C44.8132 48.7264 44.579 48.079 44.7994 47.5004C44.8132 47.528 44.8132 47.528 44.827 47.5418Z" fill="#D8BCB8"/>
<path opacity="0.25" d="M52.4189 49.1396C52.4189 49.7732 52.5567 50.9441 52.2122 51.4262C51.7851 52.0323 51.1926 51.9358 51.6473 52.845C52.0744 53.7128 52.97 54.5943 53.8381 54.9938C54.6234 55.3519 56.3457 56.206 57.1587 55.8065C56.9795 55.2004 56.1391 54.9938 55.6155 54.7872C56.5111 54.8009 57.448 55.1315 58.2747 55.4484C58.0405 54.6081 57.0898 54.25 56.3595 53.9745C55.7395 53.7403 55.1057 53.5061 54.4719 53.3271C54.1412 53.2444 53.5212 53.2857 53.2456 53.024C52.8185 52.6108 53.1216 51.8807 53.094 51.3573C53.0803 50.7788 52.8874 50.214 52.4189 49.1396Z" fill="#D8BCB8"/>
<path opacity="0.25" d="M68.3328 44.1807C65.77 44.8695 66.1833 48.1891 66.9549 49.9385C66.4451 48.2718 66.0042 45.3653 68.3328 44.1807Z" fill="#D8BCB8"/>
<path opacity="0.25" d="M70.8818 56.7156C69.8208 57.5283 69.6555 59.4843 70.3168 60.5725C70.055 59.4154 70.4133 58.1068 70.8818 56.7156Z" fill="#D8BCB8"/>
</svg>
