<svg width="149" height="130" viewBox="0 0 149 130" fill="none" xmlns="http://www.w3.org/2000/svg">
<g clip-path="url(#clip0)">
<path d="M142.426 86.4208L123.271 28.7712L126.352 29.3978C126.229 29.9176 126.316 30.4647 126.593 30.9216C126.87 31.3784 127.315 31.7084 127.833 31.8407C128.091 31.9039 128.359 31.9155 128.622 31.8749C128.884 31.8344 129.136 31.7423 129.363 31.6041C129.59 31.4659 129.787 31.2843 129.944 31.0697C130.1 30.8551 130.212 30.6117 130.274 30.3535C130.406 29.8309 130.324 29.2776 130.048 28.8146C129.772 28.3516 129.324 28.0166 128.801 27.8829C128.354 27.7732 127.883 27.8201 127.466 28.0156C127.049 28.2112 126.712 28.5437 126.511 28.9576L100.512 21.2165L76.2209 13.9791L75.9946 9.77943C77.2267 9.72975 78.3929 9.21102 79.2542 8.32963C80.1156 7.44824 80.6066 6.27102 80.6266 5.03946C80.6467 3.80789 80.1942 2.61535 79.3621 1.70645C78.5299 0.797552 77.3811 0.241206 76.1514 0.151537C74.9216 0.0618683 73.7042 0.445674 72.7487 1.22422C71.7932 2.00277 71.1722 3.11704 71.013 4.33846C70.8538 5.55988 71.1686 6.79586 71.8926 7.79284C72.6167 8.78983 73.6952 9.47225 74.9069 9.70012L74.6925 13.6301L50.5996 8.73645L23.5372 3.236C23.5554 2.77017 23.4133 2.31217 23.1344 1.93836C22.8556 1.56454 22.4569 1.2975 22.0048 1.18177C21.7465 1.1186 21.4782 1.10712 21.2154 1.14797C20.9525 1.18882 20.7004 1.2812 20.4735 1.4198C20.2466 1.55839 20.0493 1.74046 19.8931 1.95552C19.7369 2.17057 19.6249 2.41437 19.5634 2.67287C19.4889 2.93317 19.4676 3.20578 19.5007 3.47448C19.5338 3.74318 19.6207 4.00248 19.7562 4.23695C19.8917 4.47141 20.073 4.67625 20.2894 4.83928C20.5057 5.00231 20.7527 5.12019 21.0156 5.18592C21.2785 5.25164 21.552 5.26386 21.8197 5.22185C22.0874 5.17985 22.344 5.08447 22.574 4.94139C22.8041 4.79832 23.003 4.61047 23.1589 4.38903C23.3149 4.16758 23.4246 3.91708 23.4816 3.6524L26.1136 4.44555L7.09808 61.8651H0C0 61.8651 4.13657 71.0417 25.9588 71.0417C47.781 71.0417 50.4527 61.8651 50.4527 61.8651H45.7842L26.7686 4.6359L49.9168 11.5283L74.4027 18.8213L69.1467 115.827C69.1467 115.827 69.3531 120.189 62.5448 121.244C55.7365 122.299 47.0625 122.703 42.9418 124.999C38.8211 127.295 38.1978 130 38.1978 130H112.684C112.684 130 112.065 127.291 107.92 124.999C103.776 122.707 95.1253 122.287 88.317 121.244C81.5088 120.201 81.7112 115.827 81.7112 115.827L76.5028 19.2654L99.8296 24.0243L122.855 28.7038L103.74 86.4208H98.5473C98.5473 86.4208 102.684 95.5974 124.502 95.5974C146.32 95.5974 149 86.4208 149 86.4208H142.426ZM44.224 61.8572H8.66219L26.4113 8.25263L44.224 61.8572ZM105.304 86.4208L123.065 32.8004L140.866 86.4208H105.304Z" fill="#3399FF"/>
<path d="M106.872 89.5101C106.872 89.5101 111.898 94.7091 124.256 94.7091C136.614 94.7091 142.045 89.5101 142.045 89.5101H106.872Z" fill="url(#paint0_linear)"/>
<path d="M43.3942 130C43.7158 129.726 43.9421 129.496 44.3549 129.207C45.2941 128.523 46.3011 127.937 47.3601 127.458C47.9577 127.19 48.5732 126.963 49.2021 126.78C49.8757 126.592 50.5634 126.46 51.2585 126.383C53.6761 125.919 57.2132 125.451 60.4368 124.761C61.9206 124.459 63.3801 124.048 64.8036 123.532C65.3795 123.315 65.936 123.05 66.4669 122.739C66.8989 122.494 67.2867 122.179 67.6142 121.807C67.9558 121.242 68.2544 120.652 68.5075 120.042C68.735 119.492 68.9221 118.926 69.0672 118.349C69.3216 117.299 69.4547 116.224 69.4642 115.144C69.4642 114.101 69.4126 113.078 69.3768 112.027C69.3768 111.845 69.3967 111.631 69.3768 111.464L69.1387 115.85C69.0782 116.967 68.6174 118.024 67.8405 118.829C66.9116 119.848 65.3316 120.843 62.5328 121.272L62.1001 121.327C55.3514 122.326 46.979 122.775 42.9337 125.023C38.8051 127.315 38.1699 130.02 38.1699 130.02L43.3942 130Z" fill="url(#paint1_linear)"/>
<path d="M80.6513 4.88177C80.6513 6.16704 80.1401 7.39967 79.2304 8.30849C78.3206 9.21731 77.0867 9.72788 75.8001 9.72788C74.5135 9.72788 73.2796 9.21731 72.3698 8.30849C71.4601 7.39967 70.949 6.16704 70.949 4.88177" fill="url(#paint2_linear)"/>
<path d="M78.5313 4.04504C78.5313 4.94431 78.1737 5.80674 77.5372 6.44262C76.9007 7.0785 76.0373 7.43573 75.1371 7.43573C74.2369 7.43573 73.3736 7.0785 72.7371 6.44262C72.1005 5.80674 71.7429 4.94431 71.7429 4.04504" fill="url(#paint3_linear)"/>
<path d="M7.62598 64.764C7.62598 64.764 12.6478 69.9631 25.0099 69.9631C37.372 69.9631 42.7948 64.764 42.7948 64.764H7.62598Z" fill="url(#paint4_linear)"/>
<path d="M23.5611 3.14085C23.5564 3.54139 23.4332 3.93159 23.207 4.26235C22.9808 4.59311 22.6618 4.84965 22.29 4.99968C21.9182 5.14972 21.5103 5.18655 21.1176 5.10554C20.7249 5.02453 20.3649 4.82929 20.0831 4.54441C19.8012 4.25952 19.61 3.89771 19.5334 3.5045C19.4569 3.1113 19.4985 2.70427 19.6531 2.33464C19.8076 1.96501 20.0681 1.64929 20.4018 1.42722C20.7355 1.20514 21.1275 1.08664 21.5285 1.08661C21.797 1.08817 22.0625 1.14254 22.31 1.24662C22.5574 1.3507 22.7819 1.50244 22.9707 1.6932C23.1594 1.88395 23.3087 2.10998 23.41 2.35837C23.5113 2.60676 23.5626 2.87264 23.5611 3.14085Z" fill="url(#paint5_linear)"/>
<path d="M22.6719 2.79581C22.6688 3.07591 22.5828 3.34883 22.4247 3.5802C22.2667 3.81158 22.0436 3.99108 21.7837 4.0961C21.5237 4.20113 21.2385 4.227 20.9638 4.17044C20.6892 4.11388 20.4375 3.97743 20.2403 3.77826C20.0431 3.57909 19.9093 3.3261 19.8558 3.05115C19.8022 2.77619 19.8313 2.49155 19.9393 2.23305C20.0473 1.97455 20.2294 1.75375 20.4628 1.59844C20.6962 1.44313 20.9703 1.36025 21.2507 1.36023C21.4384 1.36127 21.624 1.39922 21.797 1.47193C21.97 1.54464 22.127 1.65068 22.2589 1.78398C22.3909 1.91729 22.4953 2.07526 22.5662 2.24887C22.637 2.42248 22.673 2.60833 22.6719 2.79581Z" fill="url(#paint6_linear)"/>
<path d="M130.354 29.842C130.35 30.2427 130.227 30.6333 130.001 30.9646C129.776 31.2958 129.457 31.553 129.085 31.7036C128.713 31.8543 128.305 31.8917 127.912 31.8111C127.52 31.7305 127.159 31.5356 126.877 31.2509C126.595 30.9661 126.403 30.6043 126.326 30.211C126.249 29.8177 126.291 29.4105 126.445 29.0406C126.6 28.6707 126.86 28.3548 127.194 28.1326C127.528 27.9103 127.92 27.7917 128.321 27.7917C128.863 27.7948 129.381 28.0125 129.762 28.3969C130.143 28.7813 130.356 29.301 130.354 29.842Z" fill="url(#paint7_linear)"/>
<path d="M129.464 29.4891C129.461 29.7691 129.375 30.0421 129.217 30.2734C129.059 30.5048 128.836 30.6843 128.576 30.7893C128.316 30.8944 128.031 30.9202 127.756 30.8637C127.482 30.8071 127.23 30.6707 127.033 30.4715C126.836 30.2723 126.702 30.0193 126.648 29.7444C126.595 29.4694 126.624 29.1848 126.732 28.9263C126.84 28.6678 127.022 28.447 127.255 28.2917C127.489 28.1364 127.763 28.0535 128.043 28.0535C128.231 28.0545 128.416 28.0925 128.589 28.1652C128.762 28.2379 128.919 28.3439 129.051 28.4772C129.183 28.6105 129.288 28.7685 129.359 28.9421C129.43 29.1157 129.465 29.3016 129.464 29.4891Z" fill="url(#paint8_linear)"/>
<path d="M76.2805 67.8652C75.0896 40.9539 75.8835 19.2813 76.487 19.2535C77.0904 19.2257 78.0352 40.8825 79.2301 67.7938C80.425 94.7051 82.2909 116.437 81.6795 116.465C81.0681 116.493 77.4715 94.7805 76.2805 67.8652Z" fill="url(#paint9_linear)"/>
<path d="M75.5977 16.7869C75.5977 23.2192 75.5025 28.9219 75.3556 29.5208C75.2087 30.1196 75.0777 25.3885 75.0658 18.9561C75.0658 45.1774 74.5775 66.4376 73.9781 66.4376C73.3786 66.4376 72.8943 45.1774 72.8943 18.9561" fill="url(#paint10_linear)"/>
<path d="M123.065 28.7276L122.855 28.688L103.744 86.4208H105.308L123.065 32.7925V28.7276Z" fill="url(#paint11_linear)"/>
<path d="M123.065 28.7276V32.7925L140.862 86.4208H142.426L123.276 28.7712L123.053 28.7276H123.065Z" fill="url(#paint12_linear)"/>
<path d="M26.1135 4.43762L7.09399 61.8611H8.65811L26.4112 8.25264V4.52883L26.1135 4.43762Z" fill="url(#paint13_linear)"/>
<path d="M26.4114 8.25267L44.224 61.8612H45.7882L26.7687 4.63198L26.4114 4.52887V8.25267Z" fill="url(#paint14_linear)"/>
</g>
<defs>
<linearGradient id="paint0_linear" x1="124.42" y1="95.7522" x2="124.42" y2="90.5531" gradientUnits="userSpaceOnUse">
<stop stop-color="white" stop-opacity="0.65"/>
<stop offset="1" stop-color="white" stop-opacity="0"/>
</linearGradient>
<linearGradient id="paint1_linear" x1="42317.1" y1="-544332" x2="42336.7" y2="-544129" gradientUnits="userSpaceOnUse">
<stop stop-color="white" stop-opacity="0.65"/>
<stop offset="1" stop-color="white" stop-opacity="0"/>
</linearGradient>
<linearGradient id="paint2_linear" x1="6469.08" y1="-34644.6" x2="6457.78" y2="-34679.2" gradientUnits="userSpaceOnUse">
<stop stop-color="white" stop-opacity="0.65"/>
<stop offset="1" stop-color="white" stop-opacity="0"/>
</linearGradient>
<linearGradient id="paint3_linear" x1="3722.7" y1="-16285.7" x2="3730.58" y2="-16261.6" gradientUnits="userSpaceOnUse">
<stop stop-color="white" stop-opacity="0.65"/>
<stop offset="1" stop-color="white" stop-opacity="0"/>
</linearGradient>
<linearGradient id="paint4_linear" x1="49890.7" y1="-40415.1" x2="49890.7" y2="-40483.3" gradientUnits="userSpaceOnUse">
<stop stop-color="white" stop-opacity="0.65"/>
<stop offset="1" stop-color="white" stop-opacity="0"/>
</linearGradient>
<linearGradient id="paint5_linear" x1="1309.49" y1="-23833.4" x2="1296.09" y2="-23842.9" gradientUnits="userSpaceOnUse">
<stop stop-color="white" stop-opacity="0.65"/>
<stop offset="1" stop-color="white" stop-opacity="0"/>
</linearGradient>
<linearGradient id="paint6_linear" x1="779.333" y1="-11095.7" x2="788.365" y2="-11089" gradientUnits="userSpaceOnUse">
<stop stop-color="white" stop-opacity="0.65"/>
<stop offset="1" stop-color="white" stop-opacity="0"/>
</linearGradient>
<linearGradient id="paint7_linear" x1="2509.84" y1="-24083.1" x2="2496.44" y2="-24092.6" gradientUnits="userSpaceOnUse">
<stop stop-color="white" stop-opacity="0.65"/>
<stop offset="1" stop-color="white" stop-opacity="0"/>
</linearGradient>
<linearGradient id="paint8_linear" x1="1651.83" y1="-11262.5" x2="1660.86" y2="-11255.8" gradientUnits="userSpaceOnUse">
<stop stop-color="white" stop-opacity="0.65"/>
<stop offset="1" stop-color="white" stop-opacity="0"/>
</linearGradient>
<linearGradient id="paint9_linear" x1="3358.94" y1="-1.5101e+07" x2="3278.3" y2="-1.5101e+07" gradientUnits="userSpaceOnUse">
<stop stop-color="white" stop-opacity="0.65"/>
<stop offset="1" stop-color="white" stop-opacity="0"/>
</linearGradient>
<linearGradient id="paint10_linear" x1="1142.49" y1="-3.9227e+06" x2="1160.93" y2="-3.9227e+06" gradientUnits="userSpaceOnUse">
<stop stop-color="white" stop-opacity="0.65"/>
<stop offset="1" stop-color="white" stop-opacity="0"/>
</linearGradient>
<linearGradient id="paint11_linear" x1="113.334" y1="27.2851" x2="113.334" y2="85.002" gradientUnits="userSpaceOnUse">
<stop stop-opacity="0.5"/>
<stop offset="1" stop-opacity="0"/>
</linearGradient>
<linearGradient id="paint12_linear" x1="21579.1" y1="-5.30269e+06" x2="22524.7" y2="-5.30269e+06" gradientUnits="userSpaceOnUse">
<stop stop-opacity="0.5"/>
<stop offset="1" stop-opacity="0"/>
</linearGradient>
<linearGradient id="paint13_linear" x1="16187.5" y1="-5.25557e+06" x2="16187.5" y2="-5.24725e+06" gradientUnits="userSpaceOnUse">
<stop stop-opacity="0.5"/>
<stop offset="1" stop-opacity="0"/>
</linearGradient>
<linearGradient id="paint14_linear" x1="16764.5" y1="-5.2347e+06" x2="17710.1" y2="-5.2347e+06" gradientUnits="userSpaceOnUse">
<stop stop-opacity="0.5"/>
<stop offset="1" stop-opacity="0"/>
</linearGradient>
<clipPath id="clip0">
<rect width="149" height="130" fill="white"/>
</clipPath>
</defs>
</svg>
